<mxfile host="app.diagrams.net" modified="2023-12-21T12:34:08.659Z" agent="Mozilla/5.0 (Windows NT 10.0; Win64; x64) AppleWebKit/537.36 (KHTML, like Gecko) Chrome/120.0.0.0 Safari/537.36" etag="VEsanLHa1TPnGRkAvAkk" version="22.1.11" type="device">
  <diagram name="Page-1" id="NysmAriemp6gSNz7wCCk">
    <mxGraphModel dx="802" dy="903" grid="1" gridSize="10" guides="1" tooltips="1" connect="1" arrows="1" fold="1" page="1" pageScale="1" pageWidth="850" pageHeight="1100" math="0" shadow="0">
      <root>
        <mxCell id="0" />
        <mxCell id="1" parent="0" />
        <mxCell id="fBHRh41iBxn-ZlzJEReh-8" value="Customer" style="swimlane;childLayout=stackLayout;horizontal=1;startSize=50;horizontalStack=0;rounded=1;fontSize=14;fontStyle=0;strokeWidth=2;resizeParent=0;resizeLast=1;shadow=0;dashed=0;align=center;arcSize=4;whiteSpace=wrap;html=1;" vertex="1" parent="1">
          <mxGeometry x="220" y="280" width="180" height="240" as="geometry" />
        </mxCell>
        <mxCell id="fBHRh41iBxn-ZlzJEReh-11" value="" style="endArrow=none;html=1;rounded=0;" edge="1" parent="fBHRh41iBxn-ZlzJEReh-8">
          <mxGeometry relative="1" as="geometry">
            <mxPoint y="140" as="sourcePoint" />
            <mxPoint x="160" y="140" as="targetPoint" />
          </mxGeometry>
        </mxCell>
        <mxCell id="fBHRh41iBxn-ZlzJEReh-12" value="" style="endArrow=none;html=1;rounded=0;" edge="1" parent="fBHRh41iBxn-ZlzJEReh-8">
          <mxGeometry relative="1" as="geometry">
            <mxPoint x="20" y="140" as="sourcePoint" />
            <mxPoint x="180" y="140" as="targetPoint" />
          </mxGeometry>
        </mxCell>
        <mxCell id="fBHRh41iBxn-ZlzJEReh-9" value="+customer_id: int&lt;br&gt;+customer_name: string&lt;br&gt;+customer_email: string&lt;br&gt;+customer_password: string&lt;br&gt;&lt;br&gt;&lt;br&gt;&lt;br&gt;-customer_login(): bool&lt;br&gt;-customer_register(): account&lt;br&gt;-booking(): bool&lt;br&gt;-view_booking()" style="align=left;strokeColor=none;fillColor=none;spacingLeft=4;fontSize=12;verticalAlign=top;resizable=0;rotatable=0;part=1;html=1;" vertex="1" parent="fBHRh41iBxn-ZlzJEReh-8">
          <mxGeometry y="50" width="180" height="190" as="geometry" />
        </mxCell>
        <mxCell id="fBHRh41iBxn-ZlzJEReh-18" value="Booking" style="swimlane;childLayout=stackLayout;horizontal=1;startSize=50;horizontalStack=0;rounded=1;fontSize=14;fontStyle=0;strokeWidth=2;resizeParent=0;resizeLast=1;shadow=0;dashed=0;align=center;arcSize=4;whiteSpace=wrap;html=1;" vertex="1" parent="1">
          <mxGeometry x="210" y="630" width="160" height="210" as="geometry" />
        </mxCell>
        <mxCell id="fBHRh41iBxn-ZlzJEReh-19" value="+booking_id: int&lt;br&gt;+booking_date: date&lt;br&gt;+booking_status: bool&lt;br&gt;+no_of_adults: int&lt;br&gt;+no_of_children:&amp;nbsp; int&lt;br&gt;+car_parking: bool&lt;br&gt;+no_of_rooms: int&lt;br&gt;+meal_plan: string&lt;br&gt;&lt;br&gt;-booking_details()" style="align=left;strokeColor=none;fillColor=none;spacingLeft=4;fontSize=12;verticalAlign=top;resizable=0;rotatable=0;part=1;html=1;" vertex="1" parent="fBHRh41iBxn-ZlzJEReh-18">
          <mxGeometry y="50" width="160" height="160" as="geometry" />
        </mxCell>
        <mxCell id="fBHRh41iBxn-ZlzJEReh-20" value="" style="endArrow=none;html=1;rounded=0;exitX=-0.013;exitY=0.823;exitDx=0;exitDy=0;exitPerimeter=0;entryX=0.988;entryY=0.835;entryDx=0;entryDy=0;entryPerimeter=0;" edge="1" parent="fBHRh41iBxn-ZlzJEReh-18" source="fBHRh41iBxn-ZlzJEReh-19" target="fBHRh41iBxn-ZlzJEReh-19">
          <mxGeometry width="50" height="50" relative="1" as="geometry">
            <mxPoint x="-70" y="250" as="sourcePoint" />
            <mxPoint x="160" y="180" as="targetPoint" />
            <Array as="points" />
          </mxGeometry>
        </mxCell>
        <mxCell id="fBHRh41iBxn-ZlzJEReh-21" value="Booking Prediction" style="swimlane;childLayout=stackLayout;horizontal=1;startSize=50;horizontalStack=0;rounded=1;fontSize=14;fontStyle=0;strokeWidth=2;resizeParent=0;resizeLast=1;shadow=0;dashed=0;align=center;arcSize=4;whiteSpace=wrap;html=1;" vertex="1" parent="1">
          <mxGeometry x="630" y="630" width="160" height="130" as="geometry" />
        </mxCell>
        <mxCell id="fBHRh41iBxn-ZlzJEReh-22" value="+prediction_id: int&lt;br&gt;+prediction_status: bool&lt;br&gt;&lt;br&gt;-predict()" style="align=left;strokeColor=none;fillColor=none;spacingLeft=4;fontSize=12;verticalAlign=top;resizable=0;rotatable=0;part=1;html=1;" vertex="1" parent="fBHRh41iBxn-ZlzJEReh-21">
          <mxGeometry y="50" width="160" height="80" as="geometry" />
        </mxCell>
        <mxCell id="fBHRh41iBxn-ZlzJEReh-23" value="" style="endArrow=none;html=1;rounded=0;exitX=0;exitY=0.5;exitDx=0;exitDy=0;entryX=1;entryY=0.5;entryDx=0;entryDy=0;" edge="1" parent="fBHRh41iBxn-ZlzJEReh-21" source="fBHRh41iBxn-ZlzJEReh-22" target="fBHRh41iBxn-ZlzJEReh-22">
          <mxGeometry width="50" height="50" relative="1" as="geometry">
            <mxPoint x="-70" y="250" as="sourcePoint" />
            <mxPoint x="160" y="180" as="targetPoint" />
            <Array as="points">
              <mxPoint x="70" y="90" />
            </Array>
          </mxGeometry>
        </mxCell>
        <mxCell id="fBHRh41iBxn-ZlzJEReh-24" value="Employee" style="swimlane;childLayout=stackLayout;horizontal=1;startSize=50;horizontalStack=0;rounded=1;fontSize=14;fontStyle=0;strokeWidth=2;resizeParent=0;resizeLast=1;shadow=0;dashed=0;align=center;arcSize=4;whiteSpace=wrap;html=1;" vertex="1" parent="1">
          <mxGeometry x="630" y="280" width="180" height="240" as="geometry" />
        </mxCell>
        <mxCell id="fBHRh41iBxn-ZlzJEReh-25" value="" style="endArrow=none;html=1;rounded=0;" edge="1" parent="fBHRh41iBxn-ZlzJEReh-24">
          <mxGeometry relative="1" as="geometry">
            <mxPoint y="140" as="sourcePoint" />
            <mxPoint x="160" y="140" as="targetPoint" />
          </mxGeometry>
        </mxCell>
        <mxCell id="fBHRh41iBxn-ZlzJEReh-26" value="" style="endArrow=none;html=1;rounded=0;" edge="1" parent="fBHRh41iBxn-ZlzJEReh-24">
          <mxGeometry relative="1" as="geometry">
            <mxPoint x="20" y="140" as="sourcePoint" />
            <mxPoint x="180" y="140" as="targetPoint" />
          </mxGeometry>
        </mxCell>
        <mxCell id="fBHRh41iBxn-ZlzJEReh-27" value="+employee_id: int&lt;br&gt;+employee_name: string&lt;br&gt;+employee_email: string&lt;br&gt;+employee_password: string&lt;br&gt;&lt;br&gt;&lt;br&gt;&lt;br&gt;-employee_login(): bool&lt;br&gt;-employee_register(): bool&lt;br&gt;-view_booking()" style="align=left;strokeColor=none;fillColor=none;spacingLeft=4;fontSize=12;verticalAlign=top;resizable=0;rotatable=0;part=1;html=1;" vertex="1" parent="fBHRh41iBxn-ZlzJEReh-24">
          <mxGeometry y="50" width="180" height="190" as="geometry" />
        </mxCell>
        <mxCell id="fBHRh41iBxn-ZlzJEReh-31" value="" style="endArrow=none;html=1;rounded=0;entryX=0.394;entryY=1.002;entryDx=0;entryDy=0;entryPerimeter=0;exitX=0.5;exitY=0;exitDx=0;exitDy=0;" edge="1" parent="1" source="fBHRh41iBxn-ZlzJEReh-18" target="fBHRh41iBxn-ZlzJEReh-9">
          <mxGeometry width="50" height="50" relative="1" as="geometry">
            <mxPoint x="290" y="620" as="sourcePoint" />
            <mxPoint x="340" y="570" as="targetPoint" />
          </mxGeometry>
        </mxCell>
        <mxCell id="fBHRh41iBxn-ZlzJEReh-32" value="[1]" style="edgeLabel;html=1;align=center;verticalAlign=middle;resizable=0;points=[];" vertex="1" connectable="0" parent="fBHRh41iBxn-ZlzJEReh-31">
          <mxGeometry x="0.7409" relative="1" as="geometry">
            <mxPoint as="offset" />
          </mxGeometry>
        </mxCell>
        <mxCell id="fBHRh41iBxn-ZlzJEReh-33" value="[1,*]" style="edgeLabel;html=1;align=center;verticalAlign=middle;resizable=0;points=[];" vertex="1" connectable="0" parent="fBHRh41iBxn-ZlzJEReh-31">
          <mxGeometry x="-0.2623" relative="1" as="geometry">
            <mxPoint as="offset" />
          </mxGeometry>
        </mxCell>
        <mxCell id="fBHRh41iBxn-ZlzJEReh-34" value="" style="endArrow=none;html=1;rounded=0;exitX=0.995;exitY=0.065;exitDx=0;exitDy=0;entryX=0;entryY=0.25;entryDx=0;entryDy=0;exitPerimeter=0;" edge="1" parent="1" source="fBHRh41iBxn-ZlzJEReh-19" target="fBHRh41iBxn-ZlzJEReh-22">
          <mxGeometry width="50" height="50" relative="1" as="geometry">
            <mxPoint x="420" y="640" as="sourcePoint" />
            <mxPoint x="470" y="590" as="targetPoint" />
          </mxGeometry>
        </mxCell>
        <mxCell id="fBHRh41iBxn-ZlzJEReh-35" value="[1]" style="edgeLabel;html=1;align=center;verticalAlign=middle;resizable=0;points=[];" vertex="1" connectable="0" parent="fBHRh41iBxn-ZlzJEReh-34">
          <mxGeometry x="-0.7709" y="2" relative="1" as="geometry">
            <mxPoint as="offset" />
          </mxGeometry>
        </mxCell>
        <mxCell id="fBHRh41iBxn-ZlzJEReh-36" value="[1]" style="edgeLabel;html=1;align=center;verticalAlign=middle;resizable=0;points=[];" vertex="1" connectable="0" parent="fBHRh41iBxn-ZlzJEReh-34">
          <mxGeometry x="0.8242" relative="1" as="geometry">
            <mxPoint as="offset" />
          </mxGeometry>
        </mxCell>
        <mxCell id="fBHRh41iBxn-ZlzJEReh-37" value="" style="endArrow=none;html=1;rounded=0;entryX=0.5;entryY=1;entryDx=0;entryDy=0;exitX=1.03;exitY=0.218;exitDx=0;exitDy=0;exitPerimeter=0;" edge="1" parent="1" source="fBHRh41iBxn-ZlzJEReh-18" target="fBHRh41iBxn-ZlzJEReh-27">
          <mxGeometry width="50" height="50" relative="1" as="geometry">
            <mxPoint x="510" y="600" as="sourcePoint" />
            <mxPoint x="760" y="560" as="targetPoint" />
          </mxGeometry>
        </mxCell>
        <mxCell id="fBHRh41iBxn-ZlzJEReh-39" value="[1,*]" style="edgeLabel;html=1;align=center;verticalAlign=middle;resizable=0;points=[];" vertex="1" connectable="0" parent="fBHRh41iBxn-ZlzJEReh-37">
          <mxGeometry x="-0.7686" relative="1" as="geometry">
            <mxPoint as="offset" />
          </mxGeometry>
        </mxCell>
        <mxCell id="fBHRh41iBxn-ZlzJEReh-40" value="[1,*]" style="edgeLabel;html=1;align=center;verticalAlign=middle;resizable=0;points=[];" vertex="1" connectable="0" parent="fBHRh41iBxn-ZlzJEReh-37">
          <mxGeometry x="0.6228" y="-2" relative="1" as="geometry">
            <mxPoint as="offset" />
          </mxGeometry>
        </mxCell>
        <mxCell id="fBHRh41iBxn-ZlzJEReh-41" value="Room" style="swimlane;childLayout=stackLayout;horizontal=1;startSize=50;horizontalStack=0;rounded=1;fontSize=14;fontStyle=0;strokeWidth=2;resizeParent=0;resizeLast=1;shadow=0;dashed=0;align=center;arcSize=4;whiteSpace=wrap;html=1;" vertex="1" parent="1">
          <mxGeometry x="440" y="870" width="160" height="150" as="geometry" />
        </mxCell>
        <mxCell id="fBHRh41iBxn-ZlzJEReh-42" value="+room_id: int&lt;br&gt;+room_type: string&lt;br&gt;+room_desc: string&lt;br&gt;&lt;br&gt;-book_room()" style="align=left;strokeColor=none;fillColor=none;spacingLeft=4;fontSize=12;verticalAlign=top;resizable=0;rotatable=0;part=1;html=1;" vertex="1" parent="fBHRh41iBxn-ZlzJEReh-41">
          <mxGeometry y="50" width="160" height="100" as="geometry" />
        </mxCell>
        <mxCell id="fBHRh41iBxn-ZlzJEReh-43" value="" style="endArrow=none;html=1;rounded=0;entryX=0.983;entryY=0.595;entryDx=0;entryDy=0;entryPerimeter=0;" edge="1" parent="fBHRh41iBxn-ZlzJEReh-41" target="fBHRh41iBxn-ZlzJEReh-42">
          <mxGeometry width="50" height="50" relative="1" as="geometry">
            <mxPoint y="110" as="sourcePoint" />
            <mxPoint x="160" y="180" as="targetPoint" />
            <Array as="points">
              <mxPoint x="70" y="110" />
            </Array>
          </mxGeometry>
        </mxCell>
        <mxCell id="fBHRh41iBxn-ZlzJEReh-44" value="" style="endArrow=none;html=1;rounded=0;entryX=0.324;entryY=1.01;entryDx=0;entryDy=0;entryPerimeter=0;exitX=-0.004;exitY=0.376;exitDx=0;exitDy=0;exitPerimeter=0;" edge="1" parent="1" source="fBHRh41iBxn-ZlzJEReh-42" target="fBHRh41iBxn-ZlzJEReh-19">
          <mxGeometry width="50" height="50" relative="1" as="geometry">
            <mxPoint x="260" y="1000" as="sourcePoint" />
            <mxPoint x="310" y="950" as="targetPoint" />
            <Array as="points">
              <mxPoint x="260" y="960" />
            </Array>
          </mxGeometry>
        </mxCell>
        <mxCell id="fBHRh41iBxn-ZlzJEReh-45" value="1" style="edgeLabel;html=1;align=center;verticalAlign=middle;resizable=0;points=[];" vertex="1" connectable="0" parent="fBHRh41iBxn-ZlzJEReh-44">
          <mxGeometry x="-0.6475" y="2" relative="1" as="geometry">
            <mxPoint as="offset" />
          </mxGeometry>
        </mxCell>
        <mxCell id="fBHRh41iBxn-ZlzJEReh-46" value="[1,*]" style="edgeLabel;html=1;align=center;verticalAlign=middle;resizable=0;points=[];" vertex="1" connectable="0" parent="fBHRh41iBxn-ZlzJEReh-44">
          <mxGeometry x="0.8727" relative="1" as="geometry">
            <mxPoint as="offset" />
          </mxGeometry>
        </mxCell>
      </root>
    </mxGraphModel>
  </diagram>
</mxfile>
